<svg width="24" height="24" viewBox="0 0 24 24" xmlns="http://www.w3.org/2000/svg"><g id="bold"><path fill-rule="evenodd" d="M6 5C6 4.44772 6.44772 4 7 4H12.5C14.9853 4 17 6.01472 17 8.5C17 9.91363 16.3482 11.175 15.3287 12C16.3482 12.825 17 14.0864 17 15.5C17 17.9853 14.9853 20 12.5 20H7C6.44772 20 6 19.5523 6 19V5ZM12.5 11C13.8807 11 15 9.88071 15 8.5C15 7.11929 13.8807 6 12.5 6H8V11H12.5ZM8 13H12.5C13.8807 13 15 14.1193 15 15.5C15 16.8807 13.8807 18 12.5 18H8V13Z" /></g><g id="underline"><path d="M7 4C7.55228 4 8 4.44772 8 5V11.5C8 13.433 9.567 15 11.5 15C13.433 15 15 13.433 15 11.5V5C15 4.44772 15.4477 4 16 4C16.5523 4 17 4.44772 17 5V11.5C17 14.5376 14.5376 17 11.5 17C8.46243 17 6 14.5376 6 11.5V5C6 4.44772 6.44772 4 7 4ZM6 19C6 18.4477 6.44772 18 7 18H16C16.5523 18 17 18.4477 17 19C17 19.5523 16.5523 20 16 20H7C6.44772 20 6 19.5523 6 19Z" /></g><g id="italic"><path d="M8 5C8 4.44772 8.44772 4 9 4H16C16.5523 4 17 4.44772 17 5C17 5.55228 16.5523 6 16 6H13.3673L11.653 18H14C14.5523 18 15 18.4477 15 19C15 19.5523 14.5523 20 14 20H7C6.44772 20 6 19.5523 6 19C6 18.4477 6.44772 18 7 18H9.6327L11.347 6H9C8.44772 6 8 5.55228 8 5Z" /></g><g id="strike"><path d="M8 8.5C8 7.33861 9.31856 6 11.5 6C13.6814 6 15 7.33861 15 8.5C15 9.05228 15.4477 9.5 16 9.5C16.5523 9.5 17 9.05228 17 8.5C17 5.7954 14.2891 4 11.5 4C8.71088 4 6 5.7954 6 8.5C6 9.44633 6.38268 10.2948 7.05932 11H11.5846C8.80368 10.515 8 9.23386 8 8.5Z" /><path d="M11.5 18C13.6814 18 15 16.6614 15 15.5C15 15.0922 14.7518 14.5153 14.0539 14H6C5.44772 14 5 13.5523 5 13C5 12.4477 5.44772 12 6 12H17C17.5523 12 18 12.4477 18 13C18 13.5523 17.5523 14 17 14H16.6506C16.8713 14.4573 17 14.9746 17 15.5C17 18.2046 14.2891 20 11.5 20C8.71088 20 6 18.2046 6 15.5C6 14.9477 6.44772 14.5 7 14.5C7.55228 14.5 8 14.9477 8 15.5C8 16.6614 9.31856 18 11.5 18Z" /></g><g id="heading_size"><path d="M10 10C9.44772 10 9 10.4477 9 11V14H7V11C7 10.4477 6.55228 10 6 10C5.44772 10 5 10.4477 5 11V19C5 19.5523 5.44772 20 6 20C6.55228 20 7 19.5523 7 19V16H9V19C9 19.5523 9.44772 20 10 20C10.5523 20 11 19.5523 11 19V11C11 10.4477 10.5523 10 10 10Z" /><path d="M18 4C17.4477 4 17 4.44772 17 5V11H14V5C14 4.44772 13.5523 4 13 4C12.4477 4 12 4.44772 12 5V19C12 19.5523 12.4477 20 13 20C13.5523 20 14 19.5523 14 19V13H17V19C17 19.5523 17.4477 20 18 20C18.5523 20 19 19.5523 19 19V5C19 4.44772 18.5523 4 18 4Z" /></g><g id="text_size"><path d="M19 5C19 4.44772 18.5523 4 18 4H10C9.44771 4 9 4.44772 9 5C9 5.55228 9.44771 6 10 6H13V19C13 19.5523 13.4477 20 14 20C14.5523 20 15 19.5523 15 19V6H18C18.5523 6 19 5.55228 19 5ZM12 13C12 12.4477 11.5523 12 11 12H6C5.44771 12 5 12.4477 5 13C5 13.5523 5.44771 14 6 14H7.5V19C7.5 19.5523 7.94771 20 8.5 20C9.05229 20 9.5 19.5523 9.5 19V14H11C11.5523 14 12 13.5523 12 13Z" /></g></svg>