<svg width="24" height="24" viewBox="0 0 24 24" xmlns="http://www.w3.org/2000/svg">
    <g id="link">
        <path
            d="M17.2979 6.70206C16.3619 5.76598 14.8442 5.76598 13.9081 6.70206L12.1066 8.50357C11.7161 8.8941 11.0829 8.8941 10.6924 8.50357C10.3019 8.11305 10.3019 7.47988 10.6924 7.08936L12.4939 5.28784C14.211 3.57072 16.995 3.57072 18.7122 5.28784C20.4293 7.00497 20.4293 9.78897 18.7122 11.5061L16.9106 13.3076C16.5201 13.6981 15.887 13.6981 15.4964 13.3076C15.1059 12.9171 15.1059 12.2839 15.4964 11.8934L17.2979 10.0919C18.234 9.15581 18.234 7.63813 17.2979 6.70206ZM15.1091 8.89087C15.4997 9.2814 15.4997 9.91456 15.1091 10.3051L10.3051 15.1091C9.91456 15.4997 9.2814 15.4997 8.89087 15.1091C8.50035 14.7186 8.50035 14.0854 8.89087 13.6949L13.6949 8.89087C14.0854 8.50035 14.7186 8.50035 15.1091 8.89087ZM8.50357 10.6924C8.8941 11.0829 8.8941 11.7161 8.50357 12.1066L6.70206 13.9081C5.76598 14.8442 5.76598 16.3619 6.70206 17.2979C7.63813 18.234 9.15581 18.234 10.0919 17.2979L11.8934 15.4964C12.2839 15.1059 12.9171 15.1059 13.3076 15.4964C13.6981 15.887 13.6981 16.5201 13.3076 16.9106L11.5061 18.7122C9.78897 20.4293 7.00497 20.4293 5.28784 18.7122C3.57072 16.995 3.57072 14.211 5.28784 12.4939L7.08936 10.6924C7.47988 10.3019 8.11305 10.3019 8.50357 10.6924Z" />
    </g>
    <g id="add_image">
        <path
            d="M18 3C18.5523 3 19 3.44772 19 4V5H20C20.5523 5 21 5.44772 21 6C21 6.55228 20.5523 7 20 7H19V8C19 8.55228 18.5523 9 18 9C17.4477 9 17 8.55228 17 8V7H16C15.4477 7 15 6.55228 15 6C15 5.44772 15.4477 5 16 5H17V4C17 3.44772 17.4477 3 18 3Z" />
        <path
            d="M5 5C3.89543 5 3 5.89543 3 7V19C3 20.1046 3.89543 21 5 21H17C18.1046 21 19 20.1046 19 19V11C19 10.4477 18.5523 10 18 10C17.4477 10 17 10.4477 17 11V14.9393L14.5303 12.4697C14.2374 12.1768 13.7626 12.1768 13.4697 12.4697L10 15.9393L7.53033 13.4697C7.23744 13.1768 6.76256 13.1768 6.46967 13.4697L5 14.9393V7L13 7C13.5523 7 14 6.55228 14 6C14 5.44772 13.5523 5 13 5H5ZM8.93934 17L7 15.0607L5 17.0607V19H6.93934L8.93934 17ZM17 17.0607L14 14.0607L9.06066 19H17V17.0607Z" />
    </g>
    <g id="bullet_list">
        <path
            d="M7 17C7 17.5523 6.55228 18 6 18C5.44772 18 5 17.5523 5 17C5 16.4477 5.44772 16 6 16C6.55228 16 7 16.4477 7 17Z" />
        <path
            d="M8 17C8 16.4477 8.44772 16 9 16H18C18.5523 16 19 16.4477 19 17C19 17.5523 18.5523 18 18 18H9C8.44772 18 8 17.5523 8 17Z" />
        <path
            d="M7 12C7 12.5523 6.55228 13 6 13C5.44772 13 5 12.5523 5 12C5 11.4477 5.44772 11 6 11C6.55228 11 7 11.4477 7 12Z" />
        <path
            d="M8 12C8 11.4477 8.44772 11 9 11H18C18.5523 11 19 11.4477 19 12C19 12.5523 18.5523 13 18 13H9C8.44772 13 8 12.5523 8 12Z" />
        <path
            d="M7 7C7 7.55228 6.55228 8 6 8C5.44772 8 5 7.55228 5 7C5 6.44772 5.44772 6 6 6C6.55228 6 7 6.44772 7 7Z" />
        <path
            d="M8 7C8 6.44772 8.44772 6 9 6H18C18.5523 6 19 6.44772 19 7C19 7.55228 18.5523 8 18 8H9C8.44772 8 8 7.55228 8 7Z" />
    </g>
    <g id="numbered_list">
        <path
            d="M9 18C9 17.4477 9.44772 17 10 17H19C19.5523 17 20 17.4477 20 18C20 18.5523 19.5523 19 19 19H10C9.44772 19 9 18.5523 9 18Z" />
        <path
            d="M9 12C9 11.4477 9.44772 11 10 11H19C19.5523 11 20 11.4477 20 12C20 12.5523 19.5523 13 19 13H10C9.44772 13 9 12.5523 9 12Z" />
        <path
            d="M9 6C9 5.44772 9.44772 5 10 5H19C19.5523 5 20 5.44772 20 6C20 6.55228 19.5523 7 19 7H10C9.44772 7 9 6.55228 9 6Z" />
        <path
            d="M4 16.5C4 16.2239 4.22386 16 4.5 16H6.5C6.77614 16 7 16.2239 7 16.5V19.5C7 19.7761 6.77614 20 6.5 20H4.5C4.22386 20 4 19.7761 4 19.5C4 19.2239 4.22386 19 4.5 19H6V18.5H5C4.72386 18.5 4.5 18.2761 4.5 18C4.5 17.7239 4.72386 17.5 5 17.5H6V17H4.5C4.22386 17 4 16.7761 4 16.5Z" />
        <path
            d="M4 10.5C4 10.2239 4.22386 10 4.5 10H6.5C6.77614 10 7 10.2239 7 10.5V12C7 12.2761 6.77614 12.5 6.5 12.5H5V13H6.5C6.77614 13 7 13.2239 7 13.5C7 13.7761 6.77614 14 6.5 14H4.5C4.22386 14 4 13.7761 4 13.5V12C4 11.7239 4.22386 11.5 4.5 11.5H6V11H4.5C4.22386 11 4 10.7761 4 10.5Z" />
        <path
            d="M4 4.5C4 4.22386 4.22386 4 4.5 4H5.5C5.77614 4 6 4.22386 6 4.5V7.5C6 7.77614 5.77614 8 5.5 8C5.22386 8 5 7.77614 5 7.5V5H4.5C4.22386 5 4 4.77614 4 4.5Z" />
    </g>
    <g id="code">
        <path
            d="M9.70711 6.29289C10.0976 6.68342 10.0976 7.31658 9.70711 7.70711L5.41421 12L9.70711 16.2929C10.0976 16.6834 10.0976 17.3166 9.70711 17.7071C9.31658 18.0976 8.68342 18.0976 8.29289 17.7071L3.29289 12.7071C2.90237 12.3166 2.90237 11.6834 3.29289 11.2929L8.29289 6.29289C8.68342 5.90237 9.31658 5.90237 9.70711 6.29289Z" />
        <path
            d="M14.2929 6.29289C13.9024 6.68342 13.9024 7.31658 14.2929 7.70711L18.5858 12L14.2929 16.2929C13.9024 16.6834 13.9024 17.3166 14.2929 17.7071C14.6834 18.0976 15.3166 18.0976 15.7071 17.7071L20.7071 12.7071C21.0976 12.3166 21.0976 11.6834 20.7071 11.2929L15.7071 6.29289C15.3166 5.90237 14.6834 5.90237 14.2929 6.29289Z" />
    </g>
    <g id="code_block">
        <path
            d="M1 4.5C1 3.67157 1.67157 3 2.5 3H21.5C22.3284 3 23 3.67157 23 4.5V19.5C23 20.3284 22.3284 21 21.5 21H2.5C1.67157 21 1 20.3284 1 19.5V4.5ZM3 5V19H21V5H3Z" />
        <path
            d="M10.7071 7.29289C11.0976 7.68342 11.0976 8.31658 10.7071 8.70711L7.41421 12L10.7071 15.2929C11.0976 15.6834 11.0976 16.3166 10.7071 16.7071C10.3166 17.0976 9.68342 17.0976 9.29289 16.7071L5.29289 12.7071C4.90237 12.3166 4.90237 11.6834 5.29289 11.2929L9.29289 7.29289C9.68342 6.90237 10.3166 6.90237 10.7071 7.29289ZM13.2929 7.29289C13.6834 6.90237 14.3166 6.90237 14.7071 7.29289L18.7071 11.2929C19.0976 11.6834 19.0976 12.3166 18.7071 12.7071L14.7071 16.7071C14.3166 17.0976 13.6834 17.0976 13.2929 16.7071C12.9024 16.3166 12.9024 15.6834 13.2929 15.2929L16.5858 12L13.2929 8.70711C12.9024 8.31658 12.9024 7.68342 13.2929 7.29289Z" />
    </g>
    <g id="image">
        <path
            d="M5 4C4.44772 4 4 4.44772 4 5V19C4 19.5523 4.44772 20 5 20H19C19.5523 20 20 19.5523 20 19V5C20 4.44772 19.5523 4 19 4H5ZM14.4697 11.4697C14.7626 11.1768 15.2374 11.1768 15.5303 11.4697L18 13.9393V6H6V13.9393L7.46967 12.4697C7.76256 12.1768 8.23744 12.1768 8.53033 12.4697L11 14.9393L14.4697 11.4697ZM9.93934 16L8 14.0607L6 16.0607V18H7.93934L9.93934 16ZM18 18V16.0607L15 13.0607L10.0607 18H18Z" />
    </g>
    <g id="camera">
        <path
            d="M8 6C8 5.44772 8.44772 5 9 5H15C15.5523 5 16 5.44772 16 6V7H19C19.5523 7 20 7.44772 20 8V18C20 18.5523 19.5523 19 19 19H5C4.44772 19 4 18.5523 4 18V8C4 7.44772 4.44772 7 5 7H8V6ZM10 7V8C10 8.55228 9.55228 9 9 9H6V17H18V9H15C14.4477 9 14 8.55228 14 8V7H10Z" />
        <path
            d="M12 11.75C11.3096 11.75 10.75 12.3096 10.75 13C10.75 13.6904 11.3096 14.25 12 14.25C12.6904 14.25 13.25 13.6904 13.25 13C13.25 12.3096 12.6904 11.75 12 11.75ZM9.25 13C9.25 11.4812 10.4812 10.25 12 10.25C13.5188 10.25 14.75 11.4812 14.75 13C14.75 14.5188 13.5188 15.75 12 15.75C10.4812 15.75 9.25 14.5188 9.25 13Z" />
    </g>
    <g id="done">
        <path fill-rule="evenodd" clip-rule="evenodd" d="M20.7071 6.29289C21.0976 6.68342 21.0976 7.31658 20.7071 7.70711L10.7071 17.7071C10.3166 18.0976 9.68342 18.0976 9.29289 17.7071L3.29289 11.7071C2.90237 11.3166 2.90237 10.6834 3.29289 10.2929C3.68342 9.90237 4.31658 9.90237 4.70711 10.2929L10 15.5858L19.2929 6.29289C19.6834 5.90237 20.3166 5.90237 20.7071 6.29289Z"/>
    </g>
    <g id="close">
        <path fill-rule="evenodd" clip-rule="evenodd" d="M3.29289 3.29289C3.68342 2.90237 4.31658 2.90237 4.70711 3.29289L12 10.5858L19.2929 3.29289C19.6834 2.90237 20.3166 2.90237 20.7071 3.29289C21.0976 3.68342 21.0976 4.31658 20.7071 4.70711L13.4142 12L20.7071 19.2929C21.0976 19.6834 21.0976 20.3166 20.7071 20.7071C20.3166 21.0976 19.6834 21.0976 19.2929 20.7071L12 13.4142L4.70711 20.7071C4.31658 21.0976 3.68342 21.0976 3.29289 20.7071C2.90237 20.3166 2.90237 19.6834 3.29289 19.2929L10.5858 12L3.29289 4.70711C2.90237 4.31658 2.90237 3.68342 3.29289 3.29289Z"/>
    </g>
</svg>