<svg width="24" height="24" viewBox="0 0 24 24" xmlns="http://www.w3.org/2000/svg"><g id="h1"><path d="M6 4C6.55228 4 7 4.44771 7 5V11H10V5C10 4.44771 10.4477 4 11 4C11.5523 4 12 4.44771 12 5V19C12 19.5523 11.5523 20 11 20C10.4477 20 10 19.5523 10 19V13H7V19C7 19.5523 6.55228 20 6 20C5.44772 20 5 19.5523 5 19V5C5 4.44771 5.44772 4 6 4Z"/><path d="M17.3827 4.07612C17.7564 4.2309 18 4.59554 18 5V18H19C19.5523 18 20 18.4477 20 19C20 19.5523 19.5523 20 19 20L14 20C13.4477 20 13 19.5523 13 19C13 18.4477 13.4477 18 14 18L16 18V7.41421L14.7071 8.70711C14.3166 9.09763 13.6834 9.09763 13.2929 8.70711C12.9024 8.31658 12.9024 7.68342 13.2929 7.29289L16.2929 4.29289C16.5789 4.00689 17.009 3.92134 17.3827 4.07612Z"/></g><g id="h2"><path d="M6 4C6.55228 4 7 4.44772 7 5V11H10V5C10 4.44772 10.4477 4 11 4C11.5523 4 12 4.44772 12 5V19C12 19.5523 11.5523 20 11 20C10.4477 20 10 19.5523 10 19V13H7V19C7 19.5523 6.55228 20 6 20C5.44772 20 5 19.5523 5 19V5C5 4.44772 5.44772 4 6 4Z"/><path d="M13 5C13 4.44772 13.4477 4 14 4H19C19.5523 4 20 4.44772 20 5V12C20 12.5523 19.5523 13 19 13H15V18H19C19.5523 18 20 18.4477 20 19C20 19.5523 19.5523 20 19 20H14C13.4477 20 13 19.5523 13 19V12C13 11.4477 13.4477 11 14 11H18V6H14C13.4477 6 13 5.55229 13 5Z"/></g><g id="h3"><path d="M6 4C6.55228 4 7 4.44772 7 5V11H10V5C10 4.44772 10.4477 4 11 4C11.5523 4 12 4.44772 12 5V19C12 19.5523 11.5523 20 11 20C10.4477 20 10 19.5523 10 19V13H7V19C7 19.5523 6.55228 20 6 20C5.44772 20 5 19.5523 5 19V5C5 4.44772 5.44772 4 6 4Z"/><path d="M13 5C13 4.44772 13.4477 4 14 4H19C19.5523 4 20 4.44772 20 5V19C20 19.5523 19.5523 20 19 20H14C13.4477 20 13 19.5523 13 19C13 18.4477 13.4477 18 14 18H18V13H14C13.4477 13 13 12.5523 13 12C13 11.4477 13.4477 11 14 11H18V6H14C13.4477 6 13 5.55229 13 5Z"/></g><g id="h4"><path d="M6 4C6.55228 4 7 4.44772 7 5V11H10V5C10 4.44772 10.4477 4 11 4C11.5523 4 12 4.44772 12 5V19C12 19.5523 11.5523 20 11 20C10.4477 20 10 19.5523 10 19V13H7V19C7 19.5523 6.55228 20 6 20C5.44772 20 5 19.5523 5 19V5C5 4.44772 5.44772 4 6 4Z"/><path d="M14 4C14.5523 4 15 4.44772 15 5V11H18V5C18 4.44772 18.4477 4 19 4C19.5523 4 20 4.44772 20 5V19C20 19.5523 19.5523 20 19 20C18.4477 20 18 19.5523 18 19V13H14C13.4477 13 13 12.5523 13 12V5C13 4.44772 13.4477 4 14 4Z"/></g><g id="h5"><path d="M6 4C6.55228 4 7 4.44772 7 5V11H10V5C10 4.44772 10.4477 4 11 4C11.5523 4 12 4.44772 12 5V19C12 19.5523 11.5523 20 11 20C10.4477 20 10 19.5523 10 19V13H7V19C7 19.5523 6.55228 20 6 20C5.44772 20 5 19.5523 5 19V5C5 4.44772 5.44772 4 6 4Z"/><path d="M20 5C20 4.44772 19.5523 4 19 4H14C13.4477 4 13 4.44772 13 5V12C13 12.5523 13.4477 13 14 13H18V18H14C13.4477 18 13 18.4477 13 19C13 19.5523 13.4477 20 14 20H19C19.5523 20 20 19.5523 20 19V12C20 11.4477 19.5523 11 19 11H15V6H19C19.5523 6 20 5.55229 20 5Z"/></g><g id="h6"><path d="M6 4C6.55228 4 7 4.44772 7 5V11H10V5C10 4.44772 10.4477 4 11 4C11.5523 4 12 4.44772 12 5V19C12 19.5523 11.5523 20 11 20C10.4477 20 10 19.5523 10 19V13H7V19C7 19.5523 6.55228 20 6 20C5.44772 20 5 19.5523 5 19V5C5 4.44772 5.44772 4 6 4Z"/><path d="M20 5C20 4.44772 19.5523 4 19 4H14C13.4477 4 13 4.44772 13 5V19C13 19.5523 13.4477 20 14 20H19C19.5523 20 20 19.5523 20 19V12C20 11.4477 19.5523 11 19 11H15V6H19C19.5523 6 20 5.55229 20 5ZM15 13H18V18H15V13Z"/></g></svg>